<svg width="1440" height="510" viewBox="0 0 1440 510" fill="none" xmlns="http://www.w3.org/2000/svg">
<rect width="1440" height="510" fill="#D5E1E3"/>
<path d="M546.319 212.344C547.315 212.344 548.019 212.578 548.429 213.047C548.868 213.486 549.088 214.248 549.088 215.332V264.023H552.691C553.688 264.023 554.391 264.258 554.801 264.727C555.24 265.166 555.46 265.928 555.46 267.012C555.46 268.096 555.24 268.872 554.801 269.341C554.391 269.78 553.688 270 552.691 270H545.704C544.708 270 543.99 269.78 543.551 269.341C543.141 268.872 542.936 268.096 542.936 267.012V263.496C541.09 265.898 538.951 267.744 536.52 269.033C534.088 270.322 531.437 270.967 528.565 270.967C524.933 270.967 521.681 270.117 518.81 268.418C515.938 266.689 513.683 264.229 512.042 261.035C510.401 257.812 509.581 254.033 509.581 249.697C509.581 245.361 510.401 241.597 512.042 238.403C513.683 235.181 515.938 232.72 518.81 231.021C521.681 229.292 524.933 228.428 528.565 228.428C534.073 228.428 538.717 230.845 542.496 235.679V218.32H535.377C534.381 218.32 533.663 218.101 533.224 217.661C532.813 217.192 532.608 216.416 532.608 215.332C532.608 214.248 532.813 213.486 533.224 213.047C533.663 212.578 534.381 212.344 535.377 212.344H546.319ZM529.005 234.932C526.397 234.932 524.156 235.562 522.281 236.821C520.406 238.052 518.971 239.78 517.975 242.007C517.008 244.233 516.524 246.797 516.524 249.697C516.524 252.598 517.008 255.161 517.975 257.388C518.971 259.614 520.406 261.357 522.281 262.617C524.156 263.848 526.397 264.463 529.005 264.463C531.612 264.463 533.927 263.877 535.948 262.705C537.999 261.533 539.596 259.834 540.738 257.607C541.91 255.381 542.496 252.744 542.496 249.697C542.496 246.65 541.91 244.014 540.738 241.787C539.596 239.561 537.999 237.861 535.948 236.689C533.927 235.518 531.612 234.932 529.005 234.932ZM585.343 228.428C589.591 228.428 593.209 229.292 596.197 231.021C599.215 232.72 601.529 235.093 603.141 238.14C604.752 241.157 605.675 244.644 605.909 248.599C605.909 249.595 605.689 250.298 605.25 250.708C604.84 251.118 604.137 251.323 603.141 251.323H571.324C571.529 255.688 572.818 258.999 575.191 261.255C577.594 263.481 580.978 264.595 585.343 264.595C588.038 264.595 590.704 264.258 593.341 263.584C595.978 262.881 598.292 261.958 600.284 260.815C600.782 260.552 601.236 260.42 601.646 260.42C602.672 260.42 603.507 261.196 604.151 262.749C604.415 263.364 604.547 263.921 604.547 264.419C604.547 265.591 603.902 266.499 602.613 267.144C600.357 268.286 597.691 269.209 594.615 269.912C591.539 270.615 588.448 270.967 585.343 270.967C580.919 270.967 577.14 270.117 574.005 268.418C570.87 266.719 568.482 264.272 566.842 261.079C565.201 257.886 564.381 254.092 564.381 249.697C564.381 245.508 565.274 241.802 567.062 238.579C568.849 235.356 571.324 232.866 574.488 231.108C577.652 229.321 581.271 228.428 585.343 228.428ZM585.343 234.8C581.739 234.8 578.751 235.723 576.378 237.568C574.034 239.385 572.496 241.919 571.764 245.171H598.614C597.999 241.802 596.578 239.238 594.352 237.48C592.154 235.693 589.151 234.8 585.343 234.8ZM654.732 228.428C655.934 228.428 656.783 228.647 657.281 229.087C657.779 229.526 658.028 230.259 658.028 231.284V244.028C658.028 245.054 657.779 245.786 657.281 246.226C656.783 246.665 655.934 246.885 654.732 246.885C653.531 246.885 652.682 246.665 652.184 246.226C651.686 245.786 651.437 245.054 651.437 244.028C651.437 242.241 650.968 240.659 650.03 239.282C649.093 237.905 647.687 236.836 645.812 236.074C643.966 235.312 641.739 234.932 639.132 234.932C636.319 234.932 633.8 235.562 631.573 236.821C629.347 238.081 627.604 239.839 626.344 242.095C625.084 244.351 624.454 246.885 624.454 249.697C624.454 252.539 625.04 255.088 626.212 257.344C627.413 259.57 629.083 261.313 631.222 262.573C633.39 263.833 635.88 264.463 638.692 264.463C641.388 264.463 643.995 264.053 646.515 263.232C649.063 262.383 651.378 261.167 653.458 259.585C654.073 259.116 654.645 258.882 655.172 258.882C656.021 258.882 656.812 259.482 657.545 260.684C657.984 261.416 658.204 262.119 658.204 262.793C658.204 263.818 657.735 264.668 656.798 265.342C654.454 267.1 651.686 268.477 648.492 269.473C645.299 270.469 642.032 270.967 638.692 270.967C634.503 270.967 630.797 270.044 627.574 268.198C624.381 266.353 621.905 263.818 620.147 260.596C618.39 257.373 617.511 253.74 617.511 249.697C617.511 245.654 618.404 242.021 620.191 238.799C621.979 235.576 624.469 233.042 627.662 231.196C630.885 229.351 634.562 228.428 638.692 228.428C641.3 228.428 643.688 228.911 645.855 229.878C648.053 230.815 649.913 232.163 651.437 233.921V231.284C651.437 230.259 651.686 229.526 652.184 229.087C652.682 228.647 653.531 228.428 654.732 228.428ZM679.913 212.344C680.909 212.344 681.612 212.578 682.022 213.047C682.462 213.486 682.682 214.248 682.682 215.332V237.217C684.586 234.375 686.783 232.207 689.273 230.713C691.793 229.189 694.503 228.428 697.403 228.428C700.069 228.428 702.384 229.014 704.347 230.186C706.31 231.328 707.818 232.983 708.873 235.151C709.928 237.319 710.455 239.854 710.455 242.754V264.023H714.059C715.055 264.023 715.758 264.258 716.168 264.727C716.607 265.166 716.827 265.928 716.827 267.012C716.827 268.096 716.607 268.872 716.168 269.341C715.758 269.78 715.055 270 714.059 270H699.82C698.824 270 698.106 269.78 697.667 269.341C697.257 268.872 697.052 268.096 697.052 267.012C697.052 265.928 697.257 265.166 697.667 264.727C698.106 264.258 698.824 264.023 699.82 264.023H703.863V243.413C703.863 240.806 703.263 238.74 702.062 237.217C700.86 235.693 699.088 234.932 696.744 234.932C694.254 234.932 691.925 235.649 689.757 237.085C687.618 238.521 685.904 240.498 684.615 243.018C683.326 245.537 682.682 248.35 682.682 251.455V264.023H686.725C687.721 264.023 688.424 264.258 688.834 264.727C689.273 265.166 689.493 265.928 689.493 267.012C689.493 268.096 689.273 268.872 688.834 269.341C688.424 269.78 687.721 270 686.725 270H672.486C671.49 270 670.772 269.78 670.333 269.341C669.923 268.872 669.718 268.096 669.718 267.012C669.718 265.928 669.923 265.166 670.333 264.727C670.772 264.258 671.49 264.023 672.486 264.023H676.09V218.32H672.047C671.051 218.32 670.333 218.101 669.894 217.661C669.483 217.192 669.278 216.416 669.278 215.332C669.278 214.248 669.483 213.486 669.894 213.047C670.333 212.578 671.051 212.344 672.047 212.344H679.913ZM747.018 228.428C752.525 228.428 756.656 229.658 759.41 232.119C762.164 234.58 763.541 238.228 763.541 243.062V260.552C763.541 262.866 764.508 264.023 766.441 264.023H767.979C768.976 264.023 769.679 264.258 770.089 264.727C770.528 265.166 770.748 265.928 770.748 267.012C770.748 268.096 770.528 268.872 770.089 269.341C769.679 269.78 768.976 270 767.979 270H765.167C763.263 270 761.622 269.531 760.245 268.594C758.897 267.627 758.019 266.221 757.608 264.375C755.206 266.484 752.599 268.11 749.786 269.253C747.003 270.396 744.044 270.967 740.909 270.967C737.95 270.967 735.328 270.469 733.043 269.473C730.787 268.447 729.015 266.968 727.726 265.034C726.437 263.101 725.792 260.801 725.792 258.135C725.792 253.506 727.447 250.093 730.758 247.896C734.068 245.669 738.346 244.556 743.59 244.556C748.248 244.556 752.701 245.303 756.949 246.797V243.062C756.949 240.22 756.144 238.14 754.532 236.821C752.95 235.474 750.387 234.8 746.842 234.8C744.645 234.8 742.359 235.107 739.986 235.723C737.613 236.338 735.357 237.188 733.219 238.271C732.721 238.535 732.267 238.667 731.856 238.667C730.89 238.667 730.084 237.964 729.439 236.558C729.117 235.854 728.956 235.269 728.956 234.8C728.956 233.774 729.498 232.983 730.582 232.427C733.043 231.138 735.68 230.156 738.492 229.482C741.334 228.779 744.176 228.428 747.018 228.428ZM743.634 250.752C740.265 250.752 737.599 251.338 735.636 252.51C733.702 253.652 732.735 255.483 732.735 258.003C732.735 260.142 733.468 261.812 734.933 263.013C736.427 264.185 738.507 264.771 741.173 264.771C747.003 264.771 752.262 262.354 756.949 257.52V252.729C754.957 252.085 752.818 251.602 750.533 251.279C748.248 250.928 745.948 250.752 743.634 250.752ZM814.254 228.428C816.539 228.428 818.678 229.014 820.67 230.186C821.842 230.889 822.428 231.797 822.428 232.91C822.428 233.438 822.296 234.053 822.032 234.756C821.417 236.426 820.567 237.261 819.483 237.261C819.044 237.261 818.634 237.144 818.253 236.909C816.817 236.118 815.279 235.723 813.639 235.723C811.002 235.723 808.351 236.646 805.685 238.491C803.019 240.308 800.821 242.739 799.093 245.786C797.394 248.833 796.544 252.07 796.544 255.498V264.023H811.354C812.35 264.023 813.053 264.258 813.463 264.727C813.902 265.166 814.122 265.928 814.122 267.012C814.122 268.096 813.902 268.872 813.463 269.341C813.053 269.78 812.35 270 811.354 270H783.053C782.057 270 781.339 269.78 780.899 269.341C780.489 268.872 780.284 268.096 780.284 267.012C780.284 265.928 780.489 265.166 780.899 264.727C781.339 264.258 782.057 264.023 783.053 264.023H789.952V235.371H784.371C783.375 235.371 782.657 235.151 782.218 234.712C781.808 234.243 781.603 233.467 781.603 232.383C781.603 231.299 781.808 230.537 782.218 230.098C782.657 229.629 783.375 229.395 784.371 229.395H793.336C794.332 229.395 795.035 229.629 795.445 230.098C795.885 230.537 796.104 231.299 796.104 232.383V241.26C797.511 238.682 799.21 236.426 801.202 234.492C803.194 232.559 805.318 231.064 807.574 230.01C809.83 228.955 812.057 228.428 814.254 228.428ZM852.354 228.428C855.226 228.428 857.877 229.072 860.309 230.361C862.74 231.65 864.879 233.496 866.725 235.898V232.383C866.725 231.299 866.93 230.537 867.34 230.098C867.779 229.629 868.497 229.395 869.493 229.395H876.48C877.477 229.395 878.18 229.629 878.59 230.098C879.029 230.537 879.249 231.299 879.249 232.383C879.249 233.467 879.029 234.243 878.59 234.712C878.18 235.151 877.477 235.371 876.48 235.371H872.877V271.318C872.877 274.805 872.13 277.793 870.636 280.283C869.171 282.803 867.032 284.722 864.22 286.04C861.407 287.358 858.023 288.018 854.068 288.018C851.256 288.018 848.414 287.769 845.543 287.271C842.672 286.802 839.991 286.113 837.501 285.205C836.358 284.795 835.787 284.019 835.787 282.876C835.787 282.407 835.904 281.821 836.139 281.118C836.666 279.507 837.501 278.701 838.644 278.701C838.966 278.701 839.288 278.76 839.61 278.877C841.896 279.697 844.298 280.342 846.817 280.811C849.337 281.279 851.754 281.514 854.068 281.514C858.111 281.514 861.158 280.547 863.209 278.613C865.26 276.709 866.285 274.087 866.285 270.747V261.914C862.652 266.484 858.009 268.77 852.354 268.77C848.722 268.77 845.47 267.964 842.599 266.353C839.728 264.712 837.472 262.368 835.831 259.321C834.19 256.274 833.37 252.7 833.37 248.599C833.37 244.497 834.19 240.923 835.831 237.876C837.472 234.829 839.728 232.5 842.599 230.889C845.47 229.248 848.722 228.428 852.354 228.428ZM852.794 234.932C850.187 234.932 847.945 235.518 846.07 236.689C844.195 237.832 842.76 239.443 841.764 241.523C840.797 243.574 840.313 245.933 840.313 248.599C840.313 251.265 840.797 253.638 841.764 255.718C842.76 257.769 844.195 259.38 846.07 260.552C847.945 261.694 850.187 262.266 852.794 262.266C855.401 262.266 857.716 261.724 859.737 260.64C861.788 259.556 863.385 257.988 864.527 255.938C865.699 253.857 866.285 251.411 866.285 248.599C866.285 245.786 865.699 243.354 864.527 241.304C863.385 239.224 861.788 237.642 859.737 236.558C857.716 235.474 855.401 234.932 852.794 234.932ZM909.132 228.428C913.38 228.428 916.998 229.292 919.986 231.021C923.004 232.72 925.318 235.093 926.93 238.14C928.541 241.157 929.464 244.644 929.698 248.599C929.698 249.595 929.479 250.298 929.039 250.708C928.629 251.118 927.926 251.323 926.93 251.323H895.113C895.318 255.688 896.607 258.999 898.98 261.255C901.383 263.481 904.767 264.595 909.132 264.595C911.827 264.595 914.493 264.258 917.13 263.584C919.767 262.881 922.081 261.958 924.073 260.815C924.571 260.552 925.025 260.42 925.436 260.42C926.461 260.42 927.296 261.196 927.94 262.749C928.204 263.364 928.336 263.921 928.336 264.419C928.336 265.591 927.691 266.499 926.402 267.144C924.146 268.286 921.48 269.209 918.404 269.912C915.328 270.615 912.237 270.967 909.132 270.967C904.708 270.967 900.929 270.117 897.794 268.418C894.659 266.719 892.271 264.272 890.631 261.079C888.99 257.886 888.17 254.092 888.17 249.697C888.17 245.508 889.063 241.802 890.851 238.579C892.638 235.356 895.113 232.866 898.277 231.108C901.441 229.321 905.06 228.428 909.132 228.428ZM909.132 234.8C905.528 234.8 902.54 235.723 900.167 237.568C897.823 239.385 896.285 241.919 895.553 245.171H922.403C921.788 241.802 920.367 239.238 918.141 237.48C915.943 235.693 912.94 234.8 909.132 234.8Z" fill="black"/>
</svg>
