<svg width="1440" height="480" viewBox="0 0 1440 480" fill="none" xmlns="http://www.w3.org/2000/svg">
<rect width="1440" height="480" fill="#D5E1E3"/>
<path d="M546.319 202.344C547.315 202.344 548.019 202.578 548.429 203.047C548.868 203.486 549.088 204.248 549.088 205.332V254.023H552.691C553.688 254.023 554.391 254.258 554.801 254.727C555.24 255.166 555.46 255.928 555.46 257.012C555.46 258.096 555.24 258.872 554.801 259.341C554.391 259.78 553.688 260 552.691 260H545.704C544.708 260 543.99 259.78 543.551 259.341C543.141 258.872 542.936 258.096 542.936 257.012V253.496C541.09 255.898 538.951 257.744 536.52 259.033C534.088 260.322 531.437 260.967 528.565 260.967C524.933 260.967 521.681 260.117 518.81 258.418C515.938 256.689 513.683 254.229 512.042 251.035C510.401 247.812 509.581 244.033 509.581 239.697C509.581 235.361 510.401 231.597 512.042 228.403C513.683 225.181 515.938 222.72 518.81 221.021C521.681 219.292 524.933 218.428 528.565 218.428C534.073 218.428 538.717 220.845 542.496 225.679V208.32H535.377C534.381 208.32 533.663 208.101 533.224 207.661C532.813 207.192 532.608 206.416 532.608 205.332C532.608 204.248 532.813 203.486 533.224 203.047C533.663 202.578 534.381 202.344 535.377 202.344H546.319ZM529.005 224.932C526.397 224.932 524.156 225.562 522.281 226.821C520.406 228.052 518.971 229.78 517.975 232.007C517.008 234.233 516.524 236.797 516.524 239.697C516.524 242.598 517.008 245.161 517.975 247.388C518.971 249.614 520.406 251.357 522.281 252.617C524.156 253.848 526.397 254.463 529.005 254.463C531.612 254.463 533.927 253.877 535.948 252.705C537.999 251.533 539.596 249.834 540.738 247.607C541.91 245.381 542.496 242.744 542.496 239.697C542.496 236.65 541.91 234.014 540.738 231.787C539.596 229.561 537.999 227.861 535.948 226.689C533.927 225.518 531.612 224.932 529.005 224.932ZM585.343 218.428C589.591 218.428 593.209 219.292 596.197 221.021C599.215 222.72 601.529 225.093 603.141 228.14C604.752 231.157 605.675 234.644 605.909 238.599C605.909 239.595 605.689 240.298 605.25 240.708C604.84 241.118 604.137 241.323 603.141 241.323H571.324C571.529 245.688 572.818 248.999 575.191 251.255C577.594 253.481 580.978 254.595 585.343 254.595C588.038 254.595 590.704 254.258 593.341 253.584C595.978 252.881 598.292 251.958 600.284 250.815C600.782 250.552 601.236 250.42 601.646 250.42C602.672 250.42 603.507 251.196 604.151 252.749C604.415 253.364 604.547 253.921 604.547 254.419C604.547 255.591 603.902 256.499 602.613 257.144C600.357 258.286 597.691 259.209 594.615 259.912C591.539 260.615 588.448 260.967 585.343 260.967C580.919 260.967 577.14 260.117 574.005 258.418C570.87 256.719 568.482 254.272 566.842 251.079C565.201 247.886 564.381 244.092 564.381 239.697C564.381 235.508 565.274 231.802 567.062 228.579C568.849 225.356 571.324 222.866 574.488 221.108C577.652 219.321 581.271 218.428 585.343 218.428ZM585.343 224.8C581.739 224.8 578.751 225.723 576.378 227.568C574.034 229.385 572.496 231.919 571.764 235.171H598.614C597.999 231.802 596.578 229.238 594.352 227.48C592.154 225.693 589.151 224.8 585.343 224.8ZM654.732 218.428C655.934 218.428 656.783 218.647 657.281 219.087C657.779 219.526 658.028 220.259 658.028 221.284V234.028C658.028 235.054 657.779 235.786 657.281 236.226C656.783 236.665 655.934 236.885 654.732 236.885C653.531 236.885 652.682 236.665 652.184 236.226C651.686 235.786 651.437 235.054 651.437 234.028C651.437 232.241 650.968 230.659 650.03 229.282C649.093 227.905 647.687 226.836 645.812 226.074C643.966 225.312 641.739 224.932 639.132 224.932C636.319 224.932 633.8 225.562 631.573 226.821C629.347 228.081 627.604 229.839 626.344 232.095C625.084 234.351 624.454 236.885 624.454 239.697C624.454 242.539 625.04 245.088 626.212 247.344C627.413 249.57 629.083 251.313 631.222 252.573C633.39 253.833 635.88 254.463 638.692 254.463C641.388 254.463 643.995 254.053 646.515 253.232C649.063 252.383 651.378 251.167 653.458 249.585C654.073 249.116 654.645 248.882 655.172 248.882C656.021 248.882 656.812 249.482 657.545 250.684C657.984 251.416 658.204 252.119 658.204 252.793C658.204 253.818 657.735 254.668 656.798 255.342C654.454 257.1 651.686 258.477 648.492 259.473C645.299 260.469 642.032 260.967 638.692 260.967C634.503 260.967 630.797 260.044 627.574 258.198C624.381 256.353 621.905 253.818 620.147 250.596C618.39 247.373 617.511 243.74 617.511 239.697C617.511 235.654 618.404 232.021 620.191 228.799C621.979 225.576 624.469 223.042 627.662 221.196C630.885 219.351 634.562 218.428 638.692 218.428C641.3 218.428 643.688 218.911 645.855 219.878C648.053 220.815 649.913 222.163 651.437 223.921V221.284C651.437 220.259 651.686 219.526 652.184 219.087C652.682 218.647 653.531 218.428 654.732 218.428ZM679.913 202.344C680.909 202.344 681.612 202.578 682.022 203.047C682.462 203.486 682.682 204.248 682.682 205.332V227.217C684.586 224.375 686.783 222.207 689.273 220.713C691.793 219.189 694.503 218.428 697.403 218.428C700.069 218.428 702.384 219.014 704.347 220.186C706.31 221.328 707.818 222.983 708.873 225.151C709.928 227.319 710.455 229.854 710.455 232.754V254.023H714.059C715.055 254.023 715.758 254.258 716.168 254.727C716.607 255.166 716.827 255.928 716.827 257.012C716.827 258.096 716.607 258.872 716.168 259.341C715.758 259.78 715.055 260 714.059 260H699.82C698.824 260 698.106 259.78 697.667 259.341C697.257 258.872 697.052 258.096 697.052 257.012C697.052 255.928 697.257 255.166 697.667 254.727C698.106 254.258 698.824 254.023 699.82 254.023H703.863V233.413C703.863 230.806 703.263 228.74 702.062 227.217C700.86 225.693 699.088 224.932 696.744 224.932C694.254 224.932 691.925 225.649 689.757 227.085C687.618 228.521 685.904 230.498 684.615 233.018C683.326 235.537 682.682 238.35 682.682 241.455V254.023H686.725C687.721 254.023 688.424 254.258 688.834 254.727C689.273 255.166 689.493 255.928 689.493 257.012C689.493 258.096 689.273 258.872 688.834 259.341C688.424 259.78 687.721 260 686.725 260H672.486C671.49 260 670.772 259.78 670.333 259.341C669.923 258.872 669.718 258.096 669.718 257.012C669.718 255.928 669.923 255.166 670.333 254.727C670.772 254.258 671.49 254.023 672.486 254.023H676.09V208.32H672.047C671.051 208.32 670.333 208.101 669.894 207.661C669.483 207.192 669.278 206.416 669.278 205.332C669.278 204.248 669.483 203.486 669.894 203.047C670.333 202.578 671.051 202.344 672.047 202.344H679.913ZM747.018 218.428C752.525 218.428 756.656 219.658 759.41 222.119C762.164 224.58 763.541 228.228 763.541 233.062V250.552C763.541 252.866 764.508 254.023 766.441 254.023H767.979C768.976 254.023 769.679 254.258 770.089 254.727C770.528 255.166 770.748 255.928 770.748 257.012C770.748 258.096 770.528 258.872 770.089 259.341C769.679 259.78 768.976 260 767.979 260H765.167C763.263 260 761.622 259.531 760.245 258.594C758.897 257.627 758.019 256.221 757.608 254.375C755.206 256.484 752.599 258.11 749.786 259.253C747.003 260.396 744.044 260.967 740.909 260.967C737.95 260.967 735.328 260.469 733.043 259.473C730.787 258.447 729.015 256.968 727.726 255.034C726.437 253.101 725.792 250.801 725.792 248.135C725.792 243.506 727.447 240.093 730.758 237.896C734.068 235.669 738.346 234.556 743.59 234.556C748.248 234.556 752.701 235.303 756.949 236.797V233.062C756.949 230.22 756.144 228.14 754.532 226.821C752.95 225.474 750.387 224.8 746.842 224.8C744.645 224.8 742.359 225.107 739.986 225.723C737.613 226.338 735.357 227.188 733.219 228.271C732.721 228.535 732.267 228.667 731.856 228.667C730.89 228.667 730.084 227.964 729.439 226.558C729.117 225.854 728.956 225.269 728.956 224.8C728.956 223.774 729.498 222.983 730.582 222.427C733.043 221.138 735.68 220.156 738.492 219.482C741.334 218.779 744.176 218.428 747.018 218.428ZM743.634 240.752C740.265 240.752 737.599 241.338 735.636 242.51C733.702 243.652 732.735 245.483 732.735 248.003C732.735 250.142 733.468 251.812 734.933 253.013C736.427 254.185 738.507 254.771 741.173 254.771C747.003 254.771 752.262 252.354 756.949 247.52V242.729C754.957 242.085 752.818 241.602 750.533 241.279C748.248 240.928 745.948 240.752 743.634 240.752ZM814.254 218.428C816.539 218.428 818.678 219.014 820.67 220.186C821.842 220.889 822.428 221.797 822.428 222.91C822.428 223.438 822.296 224.053 822.032 224.756C821.417 226.426 820.567 227.261 819.483 227.261C819.044 227.261 818.634 227.144 818.253 226.909C816.817 226.118 815.279 225.723 813.639 225.723C811.002 225.723 808.351 226.646 805.685 228.491C803.019 230.308 800.821 232.739 799.093 235.786C797.394 238.833 796.544 242.07 796.544 245.498V254.023H811.354C812.35 254.023 813.053 254.258 813.463 254.727C813.902 255.166 814.122 255.928 814.122 257.012C814.122 258.096 813.902 258.872 813.463 259.341C813.053 259.78 812.35 260 811.354 260H783.053C782.057 260 781.339 259.78 780.899 259.341C780.489 258.872 780.284 258.096 780.284 257.012C780.284 255.928 780.489 255.166 780.899 254.727C781.339 254.258 782.057 254.023 783.053 254.023H789.952V225.371H784.371C783.375 225.371 782.657 225.151 782.218 224.712C781.808 224.243 781.603 223.467 781.603 222.383C781.603 221.299 781.808 220.537 782.218 220.098C782.657 219.629 783.375 219.395 784.371 219.395H793.336C794.332 219.395 795.035 219.629 795.445 220.098C795.885 220.537 796.104 221.299 796.104 222.383V231.26C797.511 228.682 799.21 226.426 801.202 224.492C803.194 222.559 805.318 221.064 807.574 220.01C809.83 218.955 812.057 218.428 814.254 218.428ZM852.354 218.428C855.226 218.428 857.877 219.072 860.309 220.361C862.74 221.65 864.879 223.496 866.725 225.898V222.383C866.725 221.299 866.93 220.537 867.34 220.098C867.779 219.629 868.497 219.395 869.493 219.395H876.48C877.477 219.395 878.18 219.629 878.59 220.098C879.029 220.537 879.249 221.299 879.249 222.383C879.249 223.467 879.029 224.243 878.59 224.712C878.18 225.151 877.477 225.371 876.48 225.371H872.877V261.318C872.877 264.805 872.13 267.793 870.636 270.283C869.171 272.803 867.032 274.722 864.22 276.04C861.407 277.358 858.023 278.018 854.068 278.018C851.256 278.018 848.414 277.769 845.543 277.271C842.672 276.802 839.991 276.113 837.501 275.205C836.358 274.795 835.787 274.019 835.787 272.876C835.787 272.407 835.904 271.821 836.139 271.118C836.666 269.507 837.501 268.701 838.644 268.701C838.966 268.701 839.288 268.76 839.61 268.877C841.896 269.697 844.298 270.342 846.817 270.811C849.337 271.279 851.754 271.514 854.068 271.514C858.111 271.514 861.158 270.547 863.209 268.613C865.26 266.709 866.285 264.087 866.285 260.747V251.914C862.652 256.484 858.009 258.77 852.354 258.77C848.722 258.77 845.47 257.964 842.599 256.353C839.728 254.712 837.472 252.368 835.831 249.321C834.19 246.274 833.37 242.7 833.37 238.599C833.37 234.497 834.19 230.923 835.831 227.876C837.472 224.829 839.728 222.5 842.599 220.889C845.47 219.248 848.722 218.428 852.354 218.428ZM852.794 224.932C850.187 224.932 847.945 225.518 846.07 226.689C844.195 227.832 842.76 229.443 841.764 231.523C840.797 233.574 840.313 235.933 840.313 238.599C840.313 241.265 840.797 243.638 841.764 245.718C842.76 247.769 844.195 249.38 846.07 250.552C847.945 251.694 850.187 252.266 852.794 252.266C855.401 252.266 857.716 251.724 859.737 250.64C861.788 249.556 863.385 247.988 864.527 245.938C865.699 243.857 866.285 241.411 866.285 238.599C866.285 235.786 865.699 233.354 864.527 231.304C863.385 229.224 861.788 227.642 859.737 226.558C857.716 225.474 855.401 224.932 852.794 224.932ZM909.132 218.428C913.38 218.428 916.998 219.292 919.986 221.021C923.004 222.72 925.318 225.093 926.93 228.14C928.541 231.157 929.464 234.644 929.698 238.599C929.698 239.595 929.479 240.298 929.039 240.708C928.629 241.118 927.926 241.323 926.93 241.323H895.113C895.318 245.688 896.607 248.999 898.98 251.255C901.383 253.481 904.767 254.595 909.132 254.595C911.827 254.595 914.493 254.258 917.13 253.584C919.767 252.881 922.081 251.958 924.073 250.815C924.571 250.552 925.025 250.42 925.436 250.42C926.461 250.42 927.296 251.196 927.94 252.749C928.204 253.364 928.336 253.921 928.336 254.419C928.336 255.591 927.691 256.499 926.402 257.144C924.146 258.286 921.48 259.209 918.404 259.912C915.328 260.615 912.237 260.967 909.132 260.967C904.708 260.967 900.929 260.117 897.794 258.418C894.659 256.719 892.271 254.272 890.631 251.079C888.99 247.886 888.17 244.092 888.17 239.697C888.17 235.508 889.063 231.802 890.851 228.579C892.638 225.356 895.113 222.866 898.277 221.108C901.441 219.321 905.06 218.428 909.132 218.428ZM909.132 224.8C905.528 224.8 902.54 225.723 900.167 227.568C897.823 229.385 896.285 231.919 895.553 235.171H922.403C921.788 231.802 920.367 229.238 918.141 227.48C915.943 225.693 912.94 224.8 909.132 224.8Z" fill="black"/>
</svg>
