<svg width="100" height="100" viewBox="0 0 100 100" fill="none" xmlns="http://www.w3.org/2000/svg">
<path d="M63.2383 17.3C64.2344 17.3 64.9375 17.5344 65.3477 18.0031C65.7871 18.4426 66.0068 19.2043 66.0068 20.2883V56.2795H59.3566C59.3956 55.7511 59.415 55.2091 59.415 54.6535C59.415 51.6066 58.8291 48.9699 57.6572 46.7434C56.5146 44.5168 54.918 42.8176 52.8672 41.6457C50.8457 40.4738 48.5312 39.8879 45.9238 39.8879C43.3164 39.8879 41.0752 40.5178 39.2002 41.7775C37.3252 43.008 35.8896 44.7365 34.8936 46.9631C33.9268 49.1896 33.4434 51.7531 33.4434 54.6535C33.4434 55.2078 33.461 55.7498 33.4963 56.2795H26.5397C26.5132 55.7465 26.5 55.2045 26.5 54.6535C26.5 50.3176 27.3203 46.5529 28.9609 43.3596C30.6016 40.1369 32.8574 37.676 35.7285 35.9768C38.5996 34.2482 41.8516 33.384 45.4844 33.384C50.9922 33.384 55.6357 35.801 59.415 40.635V23.2766H52.2959C51.2998 23.2766 50.582 23.0568 50.1426 22.6174C49.7324 22.1486 49.5273 21.3723 49.5273 20.2883C49.5273 19.2043 49.7324 18.4426 50.1426 18.0031C50.582 17.5344 51.2998 17.3 52.2959 17.3H63.2383Z" fill="black"/>
<path d="M66.0092 77.2234H69.6127C70.6088 77.2234 71.312 77.4578 71.7221 77.9266C72.1616 78.366 72.3813 79.1277 72.3813 80.2117C72.3813 81.2957 72.1616 82.0721 71.7221 82.5408C71.312 82.9803 70.6088 83.2 69.6127 83.2H62.6254C61.6293 83.2 60.9116 82.9803 60.4721 82.5408C60.062 82.0721 59.8569 81.2957 59.8569 80.2117V76.6961C58.0112 79.0984 55.8725 80.9441 53.4409 82.2332C51.0092 83.5223 48.3579 84.1668 45.4868 84.1668C41.8539 84.1668 38.602 83.3172 35.7309 81.618C32.8598 79.8895 30.6039 77.4285 28.9633 74.2352C27.7245 71.8018 26.9534 69.068 26.65 66H33.6449C33.8704 67.6683 34.2874 69.1863 34.8959 70.5877C35.892 72.8143 37.3276 74.5574 39.2026 75.8172C41.0776 77.0477 43.3188 77.6629 45.9262 77.6629C48.5336 77.6629 50.8481 77.077 52.8696 75.9051C54.9204 74.7332 56.517 73.034 57.6596 70.8074C58.4136 69.3748 58.9251 67.7723 59.1939 66H66.0092V77.2234Z" fill="black"/>
</svg>
