<svg width="1440" height="480" viewBox="0 0 1440 480" fill="#D5E1E3" xmlns="http://www.w3.org/2000/svg">
<rect width="1440" height="480" fill="#D5E1E3"/>
<path d="M549.088 258.023H552.691C553.688 258.023 554.391 258.258 554.801 258.727C555.24 259.166 555.46 259.928 555.46 261.012C555.46 262.096 555.24 262.872 554.801 263.341C554.391 263.78 553.688 264 552.691 264H545.704C544.708 264 543.99 263.78 543.551 263.341C543.141 262.872 542.936 262.096 542.936 261.012V257.496C541.09 259.898 538.951 261.744 536.52 263.033C534.088 264.322 531.437 264.967 528.565 264.967C524.933 264.967 521.681 264.117 518.81 262.418C515.939 260.689 513.683 258.229 512.042 255.035C510.803 252.602 510.032 249.868 509.729 246.8H516.724C516.949 248.468 517.366 249.986 517.975 251.388C518.971 253.614 520.406 255.357 522.281 256.617C524.156 257.848 526.398 258.463 529.005 258.463C531.612 258.463 533.927 257.877 535.948 256.705C537.999 255.533 539.596 253.834 540.738 251.607C541.492 250.175 542.004 248.572 542.273 246.8H549.088V258.023Z" fill="black"/>
<path d="M898.981 255.255C901.383 257.481 904.767 258.595 909.132 258.595C911.827 258.595 914.493 258.258 917.13 257.584C919.767 256.881 922.081 255.958 924.073 254.815C924.571 254.552 925.025 254.42 925.436 254.42C926.461 254.42 927.296 255.196 927.94 256.749C928.204 257.364 928.336 257.921 928.336 258.419C928.336 259.591 927.691 260.499 926.402 261.144C924.147 262.286 921.481 263.209 918.404 263.912C915.328 264.615 912.237 264.967 909.132 264.967C904.708 264.967 900.929 264.117 897.794 262.418C894.659 260.719 892.272 258.272 890.631 255.079C889.39 252.663 888.618 249.903 888.316 246.8H895.228C895.632 250.442 896.883 253.261 898.981 255.255Z" fill="black"/>
<path d="M872.877 265.318C872.877 268.805 872.13 271.793 870.636 274.283C869.171 276.803 867.032 278.722 864.22 280.04C861.407 281.358 858.023 282.018 854.068 282.018C851.256 282.018 848.414 281.769 845.543 281.27C842.672 280.802 839.991 280.113 837.501 279.205C836.358 278.795 835.787 278.019 835.787 276.876C835.787 276.407 835.904 275.821 836.139 275.118C836.666 273.507 837.501 272.701 838.644 272.701C838.966 272.701 839.288 272.76 839.61 272.877C841.896 273.697 844.298 274.342 846.817 274.811C849.337 275.279 851.754 275.514 854.068 275.514C858.111 275.514 861.158 274.547 863.209 272.613C865.26 270.709 866.285 268.087 866.285 264.747V255.914C862.652 260.484 858.009 262.77 852.355 262.77C848.722 262.77 845.47 261.964 842.599 260.353C839.728 258.712 837.472 256.368 835.831 253.321C834.778 251.365 834.062 249.191 833.685 246.8H840.768C841.006 247.829 841.338 248.802 841.764 249.718C842.76 251.769 844.195 253.38 846.07 254.552C847.945 255.694 850.187 256.266 852.794 256.266C855.401 256.266 857.716 255.724 859.737 254.64C861.788 253.556 863.385 251.988 864.527 249.937C865.072 248.971 865.49 247.925 865.782 246.8H872.877V265.318Z" fill="black"/>
<path d="M763.541 254.552C763.541 256.866 764.508 258.023 766.441 258.023H767.98C768.976 258.023 769.679 258.258 770.089 258.727C770.528 259.166 770.748 259.928 770.748 261.012C770.748 262.096 770.528 262.872 770.089 263.341C769.679 263.78 768.976 264 767.98 264H765.167C763.263 264 761.622 263.531 760.245 262.594C758.898 261.627 758.019 260.221 757.608 258.375C755.206 260.484 752.599 262.11 749.786 263.253C747.003 264.395 744.044 264.967 740.909 264.967C737.95 264.967 735.328 264.469 733.043 263.473C730.787 262.447 729.015 260.968 727.726 259.034C726.437 257.101 725.792 254.801 725.792 252.135C725.792 250.128 726.103 248.35 726.725 246.8H735.186C733.552 247.953 732.735 249.687 732.735 252.003C732.735 254.142 733.468 255.812 734.933 257.013C736.427 258.185 738.507 258.77 741.173 258.77C747.003 258.77 752.262 256.354 756.949 251.52V246.8H763.541V254.552Z" fill="black"/>
<path d="M682.682 258.023H686.725C687.721 258.023 688.424 258.258 688.834 258.727C689.273 259.166 689.493 259.928 689.493 261.012C689.493 262.096 689.273 262.872 688.834 263.341C688.424 263.78 687.721 264 686.725 264H672.486C671.49 264 670.773 263.78 670.333 263.341C669.923 262.872 669.718 262.096 669.718 261.012C669.718 259.928 669.923 259.166 670.333 258.727C670.773 258.258 671.49 258.023 672.486 258.023H676.09V246.8H682.682V258.023Z" fill="black"/>
<path d="M710.455 258.023H714.059C715.055 258.023 715.758 258.258 716.168 258.727C716.607 259.166 716.827 259.928 716.827 261.012C716.827 262.096 716.607 262.872 716.168 263.341C715.758 263.78 715.055 264 714.059 264H699.82C698.824 264 698.107 263.78 697.667 263.341C697.257 262.872 697.052 262.096 697.052 261.012C697.052 259.928 697.257 259.166 697.667 258.727C698.107 258.258 698.824 258.023 699.82 258.023H703.863V246.8H710.455V258.023Z" fill="black"/>
<path d="M626.212 251.344C627.413 253.57 629.083 255.313 631.222 256.573C633.39 257.833 635.88 258.463 638.692 258.463C641.388 258.463 643.995 258.053 646.515 257.232C649.064 256.383 651.378 255.167 653.458 253.585C654.073 253.116 654.645 252.882 655.172 252.882C656.022 252.882 656.813 253.482 657.545 254.684C657.984 255.416 658.204 256.119 658.204 256.793C658.204 257.818 657.735 258.668 656.798 259.342C654.454 261.1 651.686 262.477 648.492 263.473C645.299 264.469 642.032 264.967 638.692 264.967C634.503 264.967 630.797 264.044 627.574 262.198C624.381 260.353 621.905 257.818 620.148 254.596C618.852 252.22 618.034 249.621 617.693 246.8H624.706C624.982 248.428 625.484 249.942 626.212 251.344Z" fill="black"/>
<path d="M575.191 255.255C577.594 257.481 580.978 258.595 585.343 258.595C588.038 258.595 590.704 258.258 593.341 257.584C595.978 256.881 598.292 255.958 600.284 254.815C600.782 254.552 601.236 254.42 601.647 254.42C602.672 254.42 603.507 255.196 604.151 256.749C604.415 257.364 604.547 257.921 604.547 258.419C604.547 259.591 603.902 260.499 602.613 261.144C600.357 262.286 597.691 263.209 594.615 263.912C591.539 264.615 588.448 264.967 585.343 264.967C580.919 264.967 577.14 264.117 574.005 262.418C570.87 260.719 568.482 258.272 566.842 255.079C565.601 252.663 564.829 249.903 564.527 246.8H571.439C571.843 250.442 573.094 253.261 575.191 255.255Z" fill="black"/>
<path d="M796.544 258.023H811.354C812.35 258.023 813.053 258.258 813.463 258.727C813.902 259.166 814.122 259.928 814.122 261.012C814.122 262.096 813.902 262.872 813.463 263.341C813.053 263.78 812.35 264 811.354 264H783.053C782.057 264 781.339 263.78 780.899 263.341C780.489 262.872 780.284 262.096 780.284 261.012C780.284 259.928 780.489 259.166 780.899 258.727C781.339 258.258 782.057 258.023 783.053 258.023H789.952V246.8H796.544V258.023Z" fill="black"/>
<path fill-rule="evenodd" clip-rule="evenodd" d="M585.343 214.428C589.591 214.428 593.209 215.292 596.197 217.021C599.215 218.72 601.529 221.093 603.141 224.14C604.752 227.157 605.675 230.644 605.909 234.599C605.909 235.595 605.689 236.298 605.25 236.708C604.84 237.118 604.137 237.323 603.141 237.323H571.324H564.42C564.394 236.791 564.381 236.249 564.381 235.697C564.381 231.508 565.274 227.802 567.062 224.579C568.849 221.356 571.324 218.866 574.488 217.108C577.652 215.321 581.271 214.428 585.343 214.428ZM576.378 223.568C578.751 221.723 581.739 220.8 585.343 220.8C589.151 220.8 592.154 221.693 594.352 223.48C596.578 225.238 597.999 227.802 598.614 231.171H571.764C572.496 227.919 574.034 225.385 576.378 223.568Z" fill="black"/>
<path d="M654.732 214.428C655.934 214.428 656.783 214.647 657.281 215.087C657.779 215.526 658.028 216.259 658.028 217.284V230.028C658.028 231.054 657.779 231.786 657.281 232.226C656.783 232.665 655.934 232.885 654.732 232.885C653.531 232.885 652.682 232.665 652.184 232.226C651.686 231.786 651.437 231.054 651.437 230.028C651.437 228.241 650.968 226.659 650.03 225.282C649.093 223.905 647.687 222.836 645.812 222.074C643.966 221.312 641.739 220.932 639.132 220.932C636.319 220.932 633.8 221.562 631.573 222.821C629.347 224.081 627.604 225.839 626.344 228.095C625.084 230.351 624.454 232.885 624.454 235.697C624.454 236.25 624.476 236.792 624.521 237.323H617.559C617.527 236.789 617.511 236.247 617.511 235.697C617.511 231.654 618.404 228.021 620.191 224.799C621.979 221.576 624.469 219.042 627.662 217.196C630.885 215.351 634.562 214.428 638.692 214.428C641.3 214.428 643.688 214.911 645.855 215.878C648.053 216.815 649.913 218.163 651.437 219.921V217.284C651.437 216.259 651.686 215.526 652.184 215.087C652.682 214.647 653.531 214.428 654.732 214.428Z" fill="black"/>
<path d="M679.913 198.344C680.909 198.344 681.612 198.578 682.022 199.047C682.462 199.486 682.682 200.248 682.682 201.332V223.217C684.586 220.375 686.783 218.207 689.273 216.713C691.793 215.189 694.503 214.428 697.403 214.428C700.069 214.428 702.384 215.014 704.347 216.186C706.31 217.328 707.818 218.983 708.873 221.151C709.928 223.319 710.455 225.854 710.455 228.754V237.279L703.863 237.323V229.413C703.863 226.806 703.263 224.74 702.062 223.217C700.86 221.693 699.088 220.932 696.744 220.932C694.254 220.932 691.925 221.649 689.757 223.085C687.618 224.521 685.904 226.498 684.615 229.018C683.344 231.501 682.7 234.27 682.682 237.323H676.09V204.32H672.047C671.051 204.32 670.333 204.101 669.894 203.661C669.483 203.192 669.278 202.416 669.278 201.332C669.278 200.248 669.483 199.486 669.894 199.047C670.333 198.578 671.051 198.344 672.047 198.344H679.913Z" fill="black"/>
<path d="M747.018 214.428C752.525 214.428 756.656 215.658 759.41 218.119C762.164 220.58 763.541 224.228 763.541 229.062V237.279H727.479C728.284 235.94 729.377 234.812 730.758 233.896C734.068 231.669 738.346 230.556 743.59 230.556C748.248 230.556 752.701 231.303 756.949 232.797V229.062C756.949 226.22 756.144 224.14 754.532 222.821C752.95 221.474 750.387 220.8 746.842 220.8C744.645 220.8 742.359 221.107 739.986 221.723C737.613 222.338 735.357 223.188 733.219 224.271C732.721 224.535 732.267 224.667 731.856 224.667C730.89 224.667 730.084 223.964 729.439 222.558C729.117 221.854 728.956 221.269 728.956 220.8C728.956 219.774 729.498 218.983 730.582 218.427C733.043 217.138 735.68 216.156 738.492 215.482C741.334 214.779 744.176 214.428 747.018 214.428Z" fill="black"/>
<path d="M814.254 214.428C816.539 214.428 818.678 215.014 820.67 216.186C821.842 216.889 822.428 217.797 822.428 218.91C822.428 219.438 822.296 220.053 822.032 220.756C821.417 222.426 820.567 223.261 819.483 223.261C819.044 223.261 818.634 223.144 818.253 222.909C816.817 222.118 815.279 221.723 813.639 221.723C811.002 221.723 808.351 222.646 805.685 224.491C803.019 226.308 800.821 228.739 799.093 231.786C798.107 233.553 797.408 235.384 796.994 237.279H789.952V221.371H784.371C783.375 221.371 782.657 221.151 782.218 220.712C781.808 220.243 781.603 219.467 781.603 218.383C781.603 217.299 781.808 216.537 782.218 216.098C782.657 215.629 783.375 215.395 784.371 215.395H793.336C794.332 215.395 795.035 215.629 795.445 216.098C795.885 216.537 796.104 217.299 796.104 218.383V227.26C797.511 224.682 799.21 222.426 801.202 220.492C803.194 218.559 805.318 217.064 807.574 216.01C809.83 214.955 812.057 214.428 814.254 214.428Z" fill="black"/>
<path fill-rule="evenodd" clip-rule="evenodd" d="M909.132 214.428C913.38 214.428 916.998 215.292 919.986 217.021C923.004 218.72 925.318 221.093 926.93 224.14C928.541 227.157 929.464 230.644 929.698 234.599C929.698 235.595 929.479 236.298 929.039 236.708C928.629 237.118 927.926 237.323 926.93 237.323H888.209C888.183 236.791 888.17 236.249 888.17 235.697C888.17 231.508 889.063 227.802 890.851 224.579C892.638 221.356 895.113 218.866 898.277 217.108C901.441 215.321 905.06 214.428 909.132 214.428ZM900.167 223.568C902.54 221.723 905.528 220.8 909.132 220.8C912.94 220.8 915.943 221.693 918.141 223.48C920.367 225.238 921.788 227.802 922.403 231.171H895.553C896.285 227.919 897.823 225.385 900.167 223.568Z" fill="black"/>
<path d="M852.354 214.428C855.226 214.428 857.877 215.072 860.309 216.361C862.74 217.65 864.879 219.496 866.725 221.898V218.383C866.725 217.299 866.93 216.537 867.34 216.098C867.779 215.629 868.497 215.395 869.493 215.395H876.48C877.477 215.395 878.18 215.629 878.59 216.098C879.029 216.537 879.249 217.299 879.249 218.383C879.249 219.467 879.029 220.243 878.59 220.712C878.18 221.151 877.477 221.371 876.48 221.371H872.877V237.323H866.085C866.218 236.457 866.285 235.549 866.285 234.599C866.285 231.786 865.699 229.354 864.527 227.304C863.385 225.224 861.788 223.642 859.737 222.558C857.716 221.474 855.401 220.932 852.794 220.932C850.187 220.932 847.945 221.518 846.07 222.689C844.195 223.832 842.76 225.443 841.764 227.523C840.797 229.574 840.313 231.933 840.313 234.599C840.313 235.544 840.374 236.452 840.496 237.323H833.498C833.413 236.442 833.37 235.534 833.37 234.599C833.37 230.497 834.19 226.923 835.831 223.876C837.472 220.829 839.728 218.5 842.599 216.889C845.47 215.248 848.722 214.428 852.354 214.428Z" fill="black"/>
<path d="M546.319 198.344C547.315 198.344 548.019 198.578 548.429 199.047C548.868 199.486 549.088 200.248 549.088 201.332V237.323H542.438C542.477 236.795 542.496 236.253 542.496 235.697C542.496 232.65 541.91 230.014 540.738 227.787C539.596 225.561 537.999 223.861 535.948 222.689C533.927 221.518 531.612 220.932 529.005 220.932C526.397 220.932 524.156 221.562 522.281 222.821C520.406 224.052 518.971 225.78 517.975 228.007C517.008 230.233 516.524 232.797 516.524 235.697C516.524 236.252 516.542 236.794 516.577 237.323H509.621C509.594 236.79 509.581 236.248 509.581 235.697C509.581 231.361 510.401 227.597 512.042 224.403C513.683 221.181 515.938 218.72 518.81 217.021C521.681 215.292 524.933 214.428 528.565 214.428C534.073 214.428 538.717 216.845 542.496 221.679V204.32H535.377C534.381 204.32 533.663 204.101 533.224 203.661C532.813 203.192 532.608 202.416 532.608 201.332C532.608 200.248 532.813 199.486 533.224 199.047C533.663 198.578 534.381 198.344 535.377 198.344H546.319Z" fill="black"/>
</svg>
